<svg width="100" height="90" viewBox="0 0 100 90" fill="none" xmlns="http://www.w3.org/2000/svg">
<path d="M19.9442 9.956V0H29.9861V9.956H19.9442ZM70.0139 0H79.9163V9.956H70.0139V0ZM89.9582 29.7297V9.956H100V49.6417H89.9582V59.4595H79.9163V69.4155H89.9582V79.3715H100V89.1892H79.9163V79.3715H70.0139V69.4155H29.9861V79.3715H19.9442V89.1892H0V79.3715H10.0418V69.4155H19.9442V59.4595H10.0418V49.6417H0V9.956H10.0418V29.7297H19.9442V19.912H29.9861V9.956H40.0279V19.912H59.9721V9.956H70.0139V19.912H79.9163V29.7297H89.9582ZM40.0279 39.6857V29.7297H29.9861V39.6857H40.0279ZM70.0139 39.6857V29.7297H59.9721V39.6857H70.0139Z" fill="white"/>
</svg>
