<svg width="100" height="83" viewBox="0 0 100 83" fill="none" xmlns="http://www.w3.org/2000/svg">
<path d="M43.5786 82.1233L34.0481 79.2813C33.0482 78.9923 32.4857 77.9165 32.767 76.8889L54.0934 1.39095C54.3747 0.363332 55.4215 -0.214704 56.4214 0.0743139L65.9519 2.91632C66.9518 3.20534 67.5143 4.28113 67.233 5.30875L45.9066 80.8067C45.6097 81.8343 44.5785 82.4284 43.5786 82.1233ZM25.7675 64.1079L32.5639 56.6576C33.2826 55.8709 33.2357 54.6184 32.4389 53.8959L18.2837 41.0988L32.4389 28.3017C33.2357 27.5792 33.2982 26.3268 32.5639 25.54L25.7675 18.0898C25.0644 17.3191 23.877 17.2709 23.1115 18.0095L0.59761 39.6858C-0.199203 40.4405 -0.199203 41.7411 0.59761 42.4957L23.1115 64.1881C23.877 64.9268 25.0644 64.8946 25.7675 64.1079ZM76.8885 64.2042L99.4024 42.5118C100.199 41.7571 100.199 40.4566 99.4024 39.7019L76.8885 17.9934C76.1386 17.2709 74.9512 17.303 74.2325 18.0737L67.4361 25.524C66.7174 26.3107 66.7643 27.5631 67.5611 28.2857L81.7163 41.0988L67.5611 53.8959C66.7643 54.6184 66.7018 55.8709 67.4361 56.6576L74.2325 64.1079C74.9356 64.8946 76.123 64.9268 76.8885 64.2042Z" fill="white"/>
</svg>
