<svg width="88" height="100" viewBox="0 0 88 100" fill="none" xmlns="http://www.w3.org/2000/svg">
<path d="M7.375 19.375C8.625 27.5 9.875 29.375 9.875 37.5C9.875 42.5 0.5 46.875 0.5 46.875V53.125C0.5 53.125 9.875 57.5 9.875 62.5C9.875 70.625 8.625 72.5 7.375 80.625C5.5 93.75 12.375 100 18.625 100H31.75V87.5C31.75 87.5 20.5 88.75 20.5 81.25C20.5 75.625 21.75 75.625 23 63.125C23.625 57.5 19.875 53.125 16.125 50C19.875 46.875 23.625 43.125 23 37.5C21.125 25 20.5 25 20.5 19.375C20.5 11.875 31.75 12.5 31.75 12.5V0H18.625C11.75 0 5.5 6.25 7.375 19.375Z" fill="white"/>
<path d="M81.125 19.375C79.875 27.5 78.625 29.375 78.625 37.5C78.625 42.5 88 46.875 88 46.875V53.125C88 53.125 78.625 57.5 78.625 62.5C78.625 70.625 79.875 72.5 81.125 80.625C83 93.75 76.125 100 69.875 100H56.75V87.5C56.75 87.5 68 88.75 68 81.25C68 75.625 66.75 75.625 65.5 63.125C64.875 57.5 68.625 53.125 72.375 50C68.625 46.875 64.875 43.125 65.5 37.5C66.75 25 68 25 68 19.375C68 11.875 56.75 12.5 56.75 12.5V0H69.875C76.75 0 83 6.25 81.125 19.375Z" fill="white"/>
</svg>
