<svg width="100" height="100" viewBox="0 0 100 100" fill="none" xmlns="http://www.w3.org/2000/svg">
<path d="M67.5781 47.5586L73.9258 53.9062L66.0156 61.8164C65.4297 62.4023 65.4297 62.9883 66.0156 63.5742L67.6758 65.2344C68.2617 65.8203 68.8477 65.8203 69.4336 65.2344L77.3438 57.3242L89.5508 69.5312L81.6406 77.4414C81.0547 78.0273 81.0547 78.5807 81.6406 79.1016L83.3008 80.8594C83.8867 81.4453 84.4727 81.4453 85.0586 80.8594L92.9688 72.9492L99.1211 79.1016C99.707 79.6875 100 80.4036 100 81.25C100 82.0964 99.707 82.8451 99.1211 83.4961L83.4961 99.1211C82.8451 99.707 82.0964 100 81.25 100C80.4036 100 79.6875 99.707 79.1016 99.1211L47.5586 67.5781L29.1992 85.9375C28.1576 86.9792 26.888 87.5 25.3906 87.5C23.8932 87.5 22.6237 86.9792 21.582 85.9375L14.1602 78.418C13.1185 77.3763 12.5977 76.123 12.5977 74.6582C12.5977 73.1934 13.1185 71.9401 14.1602 70.8984L32.5195 52.5391L0.878906 20.8984C0.292969 20.3125 0 19.5964 0 18.75C0 17.9036 0.292969 17.1875 0.878906 16.6016L16.5039 0.878906C17.1549 0.292969 17.9036 0 18.75 0C19.5964 0 20.3125 0.292969 20.8984 0.878906L27.0508 7.03125L19.1406 14.9414C18.5547 15.5273 18.5547 16.1133 19.1406 16.6992L20.8008 18.3594C21.3867 18.9453 21.9727 18.9453 22.5586 18.3594L30.4688 10.4492L42.6758 22.6562L34.7656 30.5664C34.1797 31.1523 34.1797 31.7383 34.7656 32.3242L36.4258 33.9844C37.0117 34.5703 37.5977 34.5703 38.1836 33.9844L46.0938 26.0742L52.4414 32.5195L83.3984 1.5625C84.4401 0.520833 85.6934 0 87.1582 0C88.623 0 89.8763 0.520833 90.918 1.5625L98.4375 9.08203C99.4792 10.1237 100 11.377 100 12.8418C100 14.3066 99.4792 15.5599 98.4375 16.6016L67.5781 47.5586ZM6.44531 78.9062C6.57552 79.4271 6.80339 79.8503 7.12891 80.1758L19.8242 92.8711C20.1497 93.1966 20.5729 93.4245 21.0938 93.5547C20.7682 94.2057 20.5078 94.5964 20.3125 94.7266L3.125 100C1.5625 100 0.651042 99.8698 0.390625 99.6094C0.130208 99.349 0 98.4375 0 96.875L5.27344 79.6875C5.40365 79.5573 5.79427 79.2969 6.44531 78.9062Z" fill="white"/>
</svg>
