<svg width="18" height="18" viewBox="0 0 18 18" fill="none" xmlns="http://www.w3.org/2000/svg">
<g clip-path="url(#clip0_681_153)">
<path fill-rule="evenodd" clip-rule="evenodd" d="M2.6831e-08 15.75C1.9715e-08 16.3467 0.237053 16.919 0.65901 17.341C1.08097 17.7629 1.65326 18 2.25 18L15.75 18C16.3467 18 16.919 17.7629 17.341 17.341C17.7629 16.919 18 16.3467 18 15.75L18 2.25C18 1.65326 17.7629 1.08097 17.341 0.65901C16.919 0.237053 16.3467 1.94933e-07 15.75 1.87817e-07L2.25 2.6831e-08C1.65326 1.9715e-08 1.08097 0.237053 0.65901 0.65901C0.237053 1.08097 1.94933e-07 1.65326 1.87817e-07 2.25L2.6831e-08 15.75ZM5.625 8.4375C5.47582 8.4375 5.33274 8.49676 5.22725 8.60225C5.12176 8.70774 5.0625 8.85082 5.0625 9C5.0625 9.14918 5.12176 9.29226 5.22725 9.39775C5.33274 9.50324 5.47582 9.5625 5.625 9.5625L11.0171 9.5625L8.60175 11.9767C8.54945 12.029 8.50797 12.0911 8.47966 12.1595C8.45136 12.2278 8.43679 12.301 8.43679 12.375C8.43679 12.449 8.45136 12.5222 8.47966 12.5905C8.50797 12.6589 8.54945 12.721 8.60175 12.7733C8.65405 12.8255 8.71614 12.867 8.78447 12.8953C8.8528 12.9236 8.92604 12.9382 9 12.9382C9.07396 12.9382 9.1472 12.9236 9.21553 12.8953C9.28386 12.867 9.34595 12.8255 9.39825 12.7733L12.7733 9.39825C12.8256 9.346 12.8672 9.28393 12.8956 9.21559C12.9239 9.14725 12.9385 9.07399 12.9385 9C12.9385 8.92601 12.9239 8.85275 12.8956 8.78441C12.8672 8.71607 12.8256 8.654 12.7733 8.60175L9.39825 5.22675C9.29263 5.12113 9.14937 5.06179 9 5.06179C8.85063 5.06179 8.70737 5.12113 8.60175 5.22675C8.49613 5.33237 8.43679 5.47563 8.43679 5.625C8.43679 5.77437 8.49613 5.91763 8.60175 6.02325L11.0171 8.4375L5.625 8.4375Z" fill="#6F33EE"/>
</g>
<defs>
<clipPath id="clip0_681_153">
<rect width="18" height="18" fill="white"/>
</clipPath>
</defs>
</svg>
