<svg width="18" height="18" viewBox="0 0 18 18" fill="none" xmlns="http://www.w3.org/2000/svg">
<path fill-rule="evenodd" clip-rule="evenodd" d="M2.69291 1.97506C2.69291 1.90023 2.72264 1.82846 2.77555 1.77555C2.82846 1.72263 2.90023 1.69291 2.97506 1.69291H12.5682C12.643 1.69291 12.7148 1.72263 12.7677 1.77555C12.8206 1.82846 12.8504 1.90023 12.8504 1.97506V10.706C12.8504 10.9304 12.9395 11.1457 13.0983 11.3045C13.257 11.4632 13.4723 11.5524 13.6968 11.5524C13.9213 11.5524 14.1366 11.4632 14.2953 11.3045C14.4541 11.1457 14.5433 10.9304 14.5433 10.706V1.97506C14.5433 1.45124 14.3352 0.948877 13.9648 0.578482C13.5944 0.208086 13.092 0 12.5682 0H2.97506C2.45124 0 1.94888 0.208086 1.57848 0.578482C1.20809 0.948877 1 1.45124 1 1.97506V14.954C1 16.0443 1.88483 16.9291 2.97506 16.9291H6.55274C6.77723 16.9291 6.99253 16.8399 7.15127 16.6812C7.31001 16.5224 7.39919 16.3071 7.39919 16.0826C7.39919 15.8581 7.31001 15.6428 7.15127 15.4841C6.99253 15.3254 6.77723 15.2362 6.55274 15.2362H2.97506C2.90023 15.2362 2.82846 15.2064 2.77555 15.1535C2.72264 15.1006 2.69291 15.0289 2.69291 14.954V1.97506ZM5.23227 4.51442C5.00778 4.51442 4.79248 4.6036 4.63374 4.76234C4.475 4.92108 4.38582 5.13638 4.38582 5.36088C4.38582 5.58537 4.475 5.80067 4.63374 5.95941C4.79248 6.11815 5.00778 6.20733 5.23227 6.20733H10.311C10.5355 6.20733 10.7508 6.11815 10.9095 5.95941C11.0683 5.80067 11.1575 5.58537 11.1575 5.36088C11.1575 5.13638 11.0683 4.92108 10.9095 4.76234C10.7508 4.6036 10.5355 4.51442 10.311 4.51442H5.23227ZM4.38582 8.74669C4.38582 8.5222 4.475 8.3069 4.63374 8.14816C4.79248 7.98942 5.00778 7.90024 5.23227 7.90024H7.48948C7.71398 7.90024 7.92928 7.98942 8.08802 8.14816C8.24676 8.3069 8.33594 8.5222 8.33594 8.74669C8.33594 8.97119 8.24676 9.18648 8.08802 9.34523C7.92928 9.50397 7.71398 9.59315 7.48948 9.59315H5.23227C5.00778 9.59315 4.79248 9.50397 4.63374 9.34523C4.475 9.18648 4.38582 8.97119 4.38582 8.74669ZM17.674 12.7386C17.7536 12.6609 17.8171 12.5683 17.8609 12.4661C17.9047 12.3639 17.928 12.2541 17.9294 12.1429C17.9307 12.0317 17.9102 11.9213 17.8689 11.8181C17.8276 11.7148 17.7664 11.6207 17.6887 11.5411C17.611 11.4615 17.5184 11.398 17.4162 11.3542C17.314 11.3104 17.2042 11.2871 17.093 11.2858C16.9818 11.2844 16.8714 11.305 16.7682 11.3463C16.6649 11.3876 16.5708 11.4488 16.4912 11.5264L11.9475 15.9641L10.346 14.3559C10.1858 14.206 9.97373 14.1242 9.75442 14.1277C9.53512 14.1311 9.32572 14.2196 9.17033 14.3744C9.01495 14.5292 8.92572 14.7382 8.92144 14.9575C8.91717 15.1768 8.99818 15.3892 9.1474 15.5499L11.3403 17.7507C11.4976 17.9087 11.7108 17.9983 11.9338 18C12.1567 18.0017 12.3713 17.9153 12.531 17.7597L17.674 12.7374V12.7386Z" fill="#6F33EE"/>
</svg>
