<svg width="11" height="18" viewBox="0 0 11 18" fill="none" xmlns="http://www.w3.org/2000/svg">
<path d="M5.50543 17.0738L10.7394 17.9955C10.8045 18.008 10.8697 17.9955 10.924 17.9457C10.9783 17.896 11 17.8337 11 17.7591V0.248872C11 0.111993 10.9023 7.04248e-07 10.7828 7.04248e-07H9.92497V16.1663C9.92497 16.2285 9.88152 16.2907 9.81638 16.2907H9.45803C9.40375 16.2907 9.34944 16.2409 9.34944 16.1663V7.04248e-07L1.65053 3.52124e-07V16.1663C1.65053 16.2285 1.60711 16.2907 1.54197 16.2907H1.18362C1.12931 16.2907 1.07503 16.2409 1.07503 16.1663V3.52124e-07L0.21719 0C0.0977324 0 0 0.111992 0 0.248872V17.7591C0 17.8337 0.0325871 17.9084 0.0760068 17.9457C0.13032 17.9955 0.195464 18.008 0.260609 17.9955L5.50543 17.0738Z" fill="#6F33EE"/>
</svg>
