<svg width="18" height="18" viewBox="0 0 18 18" fill="none" xmlns="http://www.w3.org/2000/svg">
<path d="M16.296 2.38888H16.2946C16.2914 2.28842 16.2497 2.19303 16.1781 2.12247C16.1066 2.05191 16.0106 2.01159 15.9101 2.00986V2.00914H15.1086L15.1084 16.4173L15.1086 16.4197C15.1086 16.6344 14.9366 16.8078 14.7229 16.8119V16.8131L2.58027 16.8126C2.4875 16.8124 2.3978 16.7794 2.3271 16.7193C2.25639 16.6593 2.20926 16.5761 2.19408 16.4846V15.6254H13.5016V15.6247C13.5043 15.6247 13.5066 15.6254 13.509 15.6254C13.7261 15.6254 13.9016 15.4501 13.9016 15.2328L13.9012 15.2299L13.9016 0.39286C13.9016 0.175797 13.7261 9.64404e-08 13.509 0.000238627L13.5019 0.000954053V0H12.1289V8.33712C12.129 8.37482 12.1178 8.41168 12.0966 8.44284C12.0754 8.47401 12.0452 8.49802 12.0101 8.5117C11.975 8.52539 11.9365 8.52812 11.8998 8.51952C11.8631 8.51092 11.8299 8.49141 11.8045 8.46354L10.4527 7.11179H10.4482C10.4332 7.09394 10.4144 7.07955 10.3933 7.06963C10.3722 7.0597 10.3492 7.05447 10.3258 7.0543C10.3025 7.05447 10.2795 7.0597 10.2583 7.06963C10.2372 7.07955 10.2185 7.09394 10.2035 7.11179H10.1989L8.83716 8.47356H8.83502C8.80856 8.49877 8.77526 8.51562 8.73929 8.52203C8.70331 8.52843 8.66625 8.5241 8.63272 8.50958C8.59919 8.49505 8.57068 8.47097 8.55074 8.44034C8.53081 8.40972 8.52034 8.3739 8.52063 8.33736V0.000238627H1.39262C1.17556 0.000238627 1 0.175797 1 0.39286C1 0.397869 1.00143 0.402878 1.00143 0.407887V17.5926C1.00119 17.5974 1 17.6019 1 17.6067C1 17.6114 1.00119 17.616 1.00143 17.6207V17.6389H1.00334C1.01107 17.7369 1.05542 17.8284 1.12755 17.8951C1.19968 17.9619 1.29432 17.9991 1.39262 17.9993V17.9995L15.9032 18H15.9101V17.9993C16.0129 17.9977 16.111 17.9556 16.1832 17.8823C16.2554 17.809 16.2958 17.7103 16.2958 17.6074L16.2955 17.605L16.296 2.38888Z" fill="#6F33EE"/>
</svg>
