<svg width="18" height="18" viewBox="0 0 18 18" fill="none" xmlns="http://www.w3.org/2000/svg">
<path d="M10.6923 0C9.16231 0 7.92308 1.23923 7.92308 2.76923H3.76923V6.23077C2.23923 6.23077 1 7.47 1 9C1 10.53 2.23923 11.7692 3.76923 11.7692V15.2308H7.92308C7.92308 16.7608 9.16231 18 10.6923 18C12.2223 18 13.4615 16.7608 13.4615 15.2308H17.6154V10.3846H16.2308C15.4069 10.3846 14.8462 9.82385 14.8462 9C14.8462 8.17615 15.4069 7.61539 16.2308 7.61539H17.6154V2.76923H13.4615C13.4615 1.23923 12.2223 0 10.6923 0ZM10.6923 1.38462C11.5162 1.38462 12.0769 1.94538 12.0769 2.76923V4.15385H16.2308V6.23077C14.7008 6.23077 13.4615 7.47 13.4615 9C13.4615 10.53 14.7008 11.7692 16.2308 11.7692V13.8462H12.0769V15.2308C12.0769 16.0546 11.5162 16.6154 10.6923 16.6154C9.86846 16.6154 9.30769 16.0546 9.30769 15.2308V13.8462H5.15385V10.3846H3.76923C2.94538 10.3846 2.38462 9.82385 2.38462 9C2.38462 8.17615 2.94538 7.61539 3.76923 7.61539H5.15385V4.15385H9.30769V2.76923C9.30769 1.94538 9.86846 1.38462 10.6923 1.38462Z" fill="#6F33EE"/>
</svg>
