<svg width="18" height="18" viewBox="0 0 18 18" fill="none" xmlns="http://www.w3.org/2000/svg">
<path fill-rule="evenodd" clip-rule="evenodd" d="M2.0636 2.0636C2.23239 1.89482 2.46131 1.8 2.7 1.8H7.2C7.69706 1.8 8.1 1.39706 8.1 0.9C8.1 0.402944 7.69706 0 7.2 0H2.7C1.98392 0 1.29716 0.284463 0.790812 0.790812C0.284463 1.29716 0 1.98392 0 2.7V15.3C0 16.0161 0.284463 16.7028 0.790812 17.2092C1.29716 17.7155 1.98392 18 2.7 18H15.3C16.0161 18 16.7028 17.7155 17.2092 17.2092C17.7155 16.7028 18 16.0161 18 15.3V10.8C18 10.3029 17.5971 9.9 17.1 9.9C16.6029 9.9 16.2 10.3029 16.2 10.8V15.3C16.2 15.5387 16.1052 15.7676 15.9364 15.9364C15.7676 16.1052 15.5387 16.2 15.3 16.2H2.7C2.46131 16.2 2.23239 16.1052 2.0636 15.9364C1.89482 15.7676 1.8 15.5387 1.8 15.3V2.7C1.8 2.46131 1.89482 2.23239 2.0636 2.0636ZM12.6 0H17.1H17.1C17.2298 0 17.3532 0.027477 17.4647 0.0769316C17.5916 0.133228 17.703 0.218003 17.7909 0.323146C17.8389 0.380494 17.8786 0.442414 17.9101 0.507332C17.9677 0.625995 18 0.759223 18 0.9V5.4C18 5.89706 17.5971 6.3 17.1 6.3C16.603 6.3 16.2 5.89706 16.2 5.4V3.07275L10.9864 8.2864C10.6349 8.63787 10.0651 8.63787 9.7136 8.2864C9.36213 7.93492 9.36213 7.36508 9.7136 7.0136L14.9272 1.8H12.6C12.103 1.8 11.7 1.39706 11.7 0.9C11.7 0.402944 12.103 0 12.6 0Z" fill="#6F33EE"/>
</svg>
