<svg width="18" height="18" viewBox="0 0 18 18" fill="none" xmlns="http://www.w3.org/2000/svg">
<path d="M8.99754 14.0505L14.0117 17.0764C14.3802 17.2995 14.8361 16.9698 14.7391 16.5527L13.4104 10.85L17.8329 7.01904C18.153 6.73778 17.9881 6.20436 17.5517 6.16557L11.7228 5.67094L9.44367 0.297941C9.40709 0.209741 9.34518 0.134364 9.26578 0.0813334C9.18637 0.0283032 9.09303 0 8.99754 0C8.90205 0 8.80871 0.0283032 8.7293 0.0813334C8.6499 0.134364 8.58799 0.209741 8.55141 0.297941L6.27225 5.67094L0.443415 6.16557C0.347945 6.17377 0.257045 6.21007 0.18219 6.26989C0.107335 6.32972 0.0518811 6.41037 0.0228276 6.50168C-0.00622592 6.59299 -0.00757606 6.69087 0.0189475 6.78294C0.0454711 6.87502 0.0986794 6.95718 0.171856 7.01904L4.5944 10.85L3.26569 16.5527C3.16871 16.9698 3.62454 17.2995 3.99309 17.0764L8.99754 14.0505Z" fill="#6F33EE"/>
</svg>
