<svg width="18" height="18" viewBox="0 0 18 18" fill="none" xmlns="http://www.w3.org/2000/svg">
<path d="M9 9.2L2.286 6.518L2.7 16.4H0.9L1.332 6.131L0 5.6L9 2L18 5.6L9 9.2ZM9 4.7C8.505 4.7 8.1 4.898 8.1 5.15C8.1 5.402 8.505 5.6 9 5.6C9.495 5.6 9.9 5.402 9.9 5.15C9.9 4.898 9.495 4.7 9 4.7ZM9 10.1L14.013 8.093C14.652 8.939 15.093 9.956 15.237 11.063C14.967 11.027 14.688 11 14.4 11C12.105 11 10.098 12.233 9 14.069C8.44267 13.1337 7.65201 12.3591 6.70543 11.8211C5.75884 11.2832 4.68878 11.0002 3.6 11C3.312 11 3.033 11.027 2.763 11.063C2.907 9.956 3.348 8.939 3.987 8.093L9 10.1Z" fill="#6F33EE"/>
</svg>
