<svg width="18" height="18" viewBox="0 0 18 18" fill="none" xmlns="http://www.w3.org/2000/svg">
<path d="M17.3571 3.28571H14.1429V2.16071C14.1429 2.07232 14.0705 2 13.9821 2H12.8571C12.7688 2 12.6964 2.07232 12.6964 2.16071V3.28571H9.72321V2.16071C9.72321 2.07232 9.65089 2 9.5625 2H8.4375C8.34911 2 8.27679 2.07232 8.27679 2.16071V3.28571H5.30357V2.16071C5.30357 2.07232 5.23125 2 5.14286 2H4.01786C3.92946 2 3.85714 2.07232 3.85714 2.16071V3.28571H0.642857C0.287277 3.28571 0 3.57299 0 3.92857V15.5C0 15.8556 0.287277 16.1429 0.642857 16.1429H17.3571C17.7127 16.1429 18 15.8556 18 15.5V3.92857C18 3.57299 17.7127 3.28571 17.3571 3.28571ZM7.23214 12.6071C7.23214 12.6955 7.15982 12.7679 7.07143 12.7679H3.375C3.28661 12.7679 3.21429 12.6955 3.21429 12.6071V11.6429C3.21429 11.5545 3.28661 11.4821 3.375 11.4821H7.07143C7.15982 11.4821 7.23214 11.5545 7.23214 11.6429V12.6071ZM7.23214 9.875C7.23214 9.96339 7.15982 10.0357 7.07143 10.0357H3.375C3.28661 10.0357 3.21429 9.96339 3.21429 9.875V8.91071C3.21429 8.82232 3.28661 8.75 3.375 8.75H7.07143C7.15982 8.75 7.23214 8.82232 7.23214 8.91071V9.875ZM14.7556 8.04085L11.4408 12.6353C11.4113 12.6763 11.3723 12.7098 11.3273 12.7329C11.2822 12.7559 11.2323 12.768 11.1817 12.768C11.1311 12.768 11.0812 12.7559 11.0361 12.7329C10.9911 12.7098 10.9521 12.6763 10.9225 12.6353L8.62835 9.45714C8.55201 9.35067 8.62835 9.20201 8.75893 9.20201H9.86183C9.96429 9.20201 10.0607 9.25223 10.121 9.3346L11.1817 10.8031L13.265 7.91629C13.3252 7.83192 13.4217 7.78371 13.5241 7.78371H14.625C14.7556 7.78571 14.8319 7.93438 14.7556 8.04085Z" fill="#6F33EE"/>
</svg>
