<svg width="18" height="18" viewBox="0 0 18 18" fill="none" xmlns="http://www.w3.org/2000/svg">
<path d="M15.6643 4.69286L11.1643 0.192857C11.0357 0.0642857 10.9071 0 10.7143 0H4.28571C3.57857 0 3 0.578571 3 1.28571V16.7143C3 17.4214 3.57857 18 4.28571 18H14.5714C15.2786 18 15.8571 17.4214 15.8571 16.7143V5.14286C15.8571 4.95 15.7929 4.82143 15.6643 4.69286ZM10.7143 1.54286L14.3143 5.14286H10.7143V1.54286ZM14.5714 16.7143H4.28571V1.28571H9.42857V5.14286C9.42857 5.85 10.0071 6.42857 10.7143 6.42857H14.5714V16.7143Z" fill="#6F33EE"/>
<path d="M5.5715 12.8571H13.2858V14.1428H5.5715V12.8571Z" fill="#6F33EE"/>
<path d="M5.5715 9H13.2858V10.2857H5.5715V9Z" fill="#6F33EE"/>
</svg>
